<svg xmlns="http://www.w3.org/2000/svg" width="260" height="260" viewBox="0 0 260 260" role="img" aria-label="Mã QR chuyển khoản">
  <rect width="260" height="260" fill="#fff"/>
  <rect x="18" y="18" width="56" height="56" fill="#111"/>
  <rect x="32" y="32" width="28" height="28" fill="#fff"/>
  <rect x="186" y="18" width="56" height="56" fill="#111"/>
  <rect x="200" y="32" width="28" height="28" fill="#fff"/>
  <rect x="18" y="186" width="56" height="56" fill="#111"/>
  <rect x="32" y="200" width="28" height="28" fill="#fff"/>
  <rect x="78" y="78" width="18" height="18" fill="#111"/>
  <rect x="96" y="78" width="18" height="18" fill="#111"/>
  <rect x="114" y="78" width="18" height="18" fill="#111"/>
  <rect x="132" y="78" width="18" height="18" fill="#111"/>
  <rect x="168" y="78" width="18" height="18" fill="#111"/>
  <rect x="186" y="78" width="18" height="18" fill="#111"/>
  <rect x="204" y="78" width="18" height="18" fill="#111"/>
  <rect x="78" y="96" width="18" height="18" fill="#111"/>
  <rect x="114" y="96" width="18" height="18" fill="#111"/>
  <rect x="132" y="96" width="18" height="18" fill="#111"/>
  <rect x="168" y="96" width="18" height="18" fill="#111"/>
  <rect x="204" y="96" width="18" height="18" fill="#111"/>
  <rect x="78" y="114" width="18" height="18" fill="#111"/>
  <rect x="96" y="114" width="18" height="18" fill="#111"/>
  <rect x="114" y="114" width="18" height="18" fill="#111"/>
  <rect x="132" y="114" width="18" height="18" fill="#111"/>
  <rect x="150" y="114" width="18" height="18" fill="#111"/>
  <rect x="168" y="114" width="18" height="18" fill="#111"/>
  <rect x="186" y="114" width="18" height="18" fill="#111"/>
  <rect x="204" y="114" width="18" height="18" fill="#111"/>
  <rect x="78" y="132" width="18" height="18" fill="#111"/>
  <rect x="96" y="132" width="18" height="18" fill="#111"/>
  <rect x="114" y="132" width="18" height="18" fill="#111"/>
  <rect x="168" y="132" width="18" height="18" fill="#111"/>
  <rect x="186" y="132" width="18" height="18" fill="#111"/>
  <rect x="204" y="132" width="18" height="18" fill="#111"/>
  <rect x="78" y="150" width="18" height="18" fill="#111"/>
  <rect x="96" y="150" width="18" height="18" fill="#111"/>
  <rect x="132" y="150" width="18" height="18" fill="#111"/>
  <rect x="150" y="150" width="18" height="18" fill="#111"/>
  <rect x="168" y="150" width="18" height="18" fill="#111"/>
  <rect x="186" y="150" width="18" height="18" fill="#111"/>
  <rect x="204" y="150" width="18" height="18" fill="#111"/>
  <rect x="78" y="168" width="18" height="18" fill="#111"/>
  <rect x="114" y="168" width="18" height="18" fill="#111"/>
  <rect x="132" y="168" width="18" height="18" fill="#111"/>
  <rect x="150" y="168" width="18" height="18" fill="#111"/>
  <rect x="168" y="168" width="18" height="18" fill="#111"/>
  <rect x="186" y="168" width="18" height="18" fill="#111"/>
  <rect x="204" y="168" width="18" height="18" fill="#111"/>
  <rect x="78" y="186" width="18" height="18" fill="#111"/>
  <rect x="96" y="186" width="18" height="18" fill="#111"/>
  <rect x="114" y="186" width="18" height="18" fill="#111"/>
  <rect x="132" y="186" width="18" height="18" fill="#111"/>
  <rect x="168" y="186" width="18" height="18" fill="#111"/>
  <rect x="186" y="186" width="18" height="18" fill="#111"/>
  <rect x="204" y="186" width="18" height="18" fill="#111"/>
  <rect x="78" y="204" width="18" height="18" fill="#111"/>
  <rect x="96" y="204" width="18" height="18" fill="#111"/>
  <rect x="132" y="204" width="18" height="18" fill="#111"/>
  <rect x="168" y="204" width="18" height="18" fill="#111"/>
  <rect x="186" y="204" width="18" height="18" fill="#111"/>
  <rect x="204" y="204" width="18" height="18" fill="#111"/>
  <rect x="78" y="222" width="18" height="18" fill="#111"/>
  <rect x="96" y="222" width="18" height="18" fill="#111"/>
  <rect x="114" y="222" width="18" height="18" fill="#111"/>
  <rect x="132" y="222" width="18" height="18" fill="#111"/>
  <rect x="150" y="222" width="18" height="18" fill="#111"/>
  <rect x="168" y="222" width="18" height="18" fill="#111"/>
  <rect x="186" y="222" width="18" height="18" fill="#111"/>
  <rect x="204" y="222" width="18" height="18" fill="#111"/>
</svg>
